<svg id="visual" viewBox="0 0 960 540" width="960" height="540" xmlns="http://www.w3.org/2000/svg" xmlns:xlink="http://www.w3.org/1999/xlink" version="1.1"><rect x="0" y="0" width="960" height="540" fill="#001220"></rect><defs><linearGradient id="grad1_0" x1="43.8%" y1="100%" x2="100%" y2="0%"><stop offset="14.444444444444446%" stop-color="#ca3cfa" stop-opacity="1"></stop><stop offset="85.55555555555554%" stop-color="#ca3cfa" stop-opacity="1"></stop></linearGradient></defs><defs><linearGradient id="grad1_1" x1="43.8%" y1="100%" x2="100%" y2="0%"><stop offset="14.444444444444446%" stop-color="#ca3cfa" stop-opacity="1"></stop><stop offset="85.55555555555554%" stop-color="#9248e6" stop-opacity="1"></stop></linearGradient></defs><defs><linearGradient id="grad1_2" x1="43.8%" y1="100%" x2="100%" y2="0%"><stop offset="14.444444444444446%" stop-color="#5e4acc" stop-opacity="1"></stop><stop offset="85.55555555555554%" stop-color="#9248e6" stop-opacity="1"></stop></linearGradient></defs><defs><linearGradient id="grad1_3" x1="43.8%" y1="100%" x2="100%" y2="0%"><stop offset="14.444444444444446%" stop-color="#5e4acc" stop-opacity="1"></stop><stop offset="85.55555555555554%" stop-color="#2b45ac" stop-opacity="1"></stop></linearGradient></defs><defs><linearGradient id="grad1_4" x1="43.8%" y1="100%" x2="100%" y2="0%"><stop offset="14.444444444444446%" stop-color="#003b8a" stop-opacity="1"></stop><stop offset="85.55555555555554%" stop-color="#2b45ac" stop-opacity="1"></stop></linearGradient></defs><defs><linearGradient id="grad1_5" x1="43.8%" y1="100%" x2="100%" y2="0%"><stop offset="14.444444444444446%" stop-color="#003b8a" stop-opacity="1"></stop><stop offset="85.55555555555554%" stop-color="#002f66" stop-opacity="1"></stop></linearGradient></defs><defs><linearGradient id="grad1_6" x1="43.8%" y1="100%" x2="100%" y2="0%"><stop offset="14.444444444444446%" stop-color="#002142" stop-opacity="1"></stop><stop offset="85.55555555555554%" stop-color="#002f66" stop-opacity="1"></stop></linearGradient></defs><defs><linearGradient id="grad1_7" x1="43.8%" y1="100%" x2="100%" y2="0%"><stop offset="14.444444444444446%" stop-color="#002142" stop-opacity="1"></stop><stop offset="85.55555555555554%" stop-color="#001220" stop-opacity="1"></stop></linearGradient></defs><defs><linearGradient id="grad2_0" x1="0%" y1="100%" x2="56.3%" y2="0%"><stop offset="14.444444444444446%" stop-color="#ca3cfa" stop-opacity="1"></stop><stop offset="85.55555555555554%" stop-color="#ca3cfa" stop-opacity="1"></stop></linearGradient></defs><defs><linearGradient id="grad2_1" x1="0%" y1="100%" x2="56.3%" y2="0%"><stop offset="14.444444444444446%" stop-color="#9248e6" stop-opacity="1"></stop><stop offset="85.55555555555554%" stop-color="#ca3cfa" stop-opacity="1"></stop></linearGradient></defs><defs><linearGradient id="grad2_2" x1="0%" y1="100%" x2="56.3%" y2="0%"><stop offset="14.444444444444446%" stop-color="#9248e6" stop-opacity="1"></stop><stop offset="85.55555555555554%" stop-color="#5e4acc" stop-opacity="1"></stop></linearGradient></defs><defs><linearGradient id="grad2_3" x1="0%" y1="100%" x2="56.3%" y2="0%"><stop offset="14.444444444444446%" stop-color="#2b45ac" stop-opacity="1"></stop><stop offset="85.55555555555554%" stop-color="#5e4acc" stop-opacity="1"></stop></linearGradient></defs><defs><linearGradient id="grad2_4" x1="0%" y1="100%" x2="56.3%" y2="0%"><stop offset="14.444444444444446%" stop-color="#2b45ac" stop-opacity="1"></stop><stop offset="85.55555555555554%" stop-color="#003b8a" stop-opacity="1"></stop></linearGradient></defs><defs><linearGradient id="grad2_5" x1="0%" y1="100%" x2="56.3%" y2="0%"><stop offset="14.444444444444446%" stop-color="#002f66" stop-opacity="1"></stop><stop offset="85.55555555555554%" stop-color="#003b8a" stop-opacity="1"></stop></linearGradient></defs><defs><linearGradient id="grad2_6" x1="0%" y1="100%" x2="56.3%" y2="0%"><stop offset="14.444444444444446%" stop-color="#002f66" stop-opacity="1"></stop><stop offset="85.55555555555554%" stop-color="#002142" stop-opacity="1"></stop></linearGradient></defs><defs><linearGradient id="grad2_7" x1="0%" y1="100%" x2="56.3%" y2="0%"><stop offset="14.444444444444446%" stop-color="#001220" stop-opacity="1"></stop><stop offset="85.55555555555554%" stop-color="#002142" stop-opacity="1"></stop></linearGradient></defs><g transform="translate(960, 540)"><path d="M-486 0C-488.2 -55.6 -490.4 -111.2 -462.2 -150.2C-434 -189.2 -375.4 -211.6 -337.4 -245.1C-299.4 -278.6 -282 -323.1 -248.6 -342.2C-215.3 -361.3 -165.9 -355 -121.8 -374.7C-77.6 -394.4 -38.8 -440.2 0 -486L0 0Z" fill="#001a30"></path><path d="M-425.2 0C-427.2 -48.6 -429.1 -97.3 -404.4 -131.4C-379.7 -165.5 -328.4 -185.2 -295.2 -214.5C-261.9 -243.8 -246.8 -282.7 -217.6 -299.4C-188.4 -316.2 -145.1 -310.6 -106.5 -327.9C-67.9 -345.1 -34 -385.2 0 -425.2L0 0Z" fill="#002853"></path><path d="M-364.5 0C-366.2 -41.7 -367.8 -83.4 -346.7 -112.6C-325.5 -141.9 -281.5 -158.7 -253 -183.8C-224.5 -208.9 -211.5 -242.3 -186.5 -256.7C-161.4 -271 -124.4 -266.2 -91.3 -281C-58.2 -295.8 -29.1 -330.2 0 -364.5L0 0Z" fill="#003578"></path><path d="M-303.7 0C-305.1 -34.7 -306.5 -69.5 -288.9 -93.9C-271.2 -118.2 -234.6 -132.3 -210.9 -153.2C-187.1 -174.1 -176.3 -201.9 -155.4 -213.9C-134.5 -225.8 -103.7 -221.9 -76.1 -234.2C-48.5 -246.5 -24.3 -275.1 0 -303.7L0 0Z" fill="#0c409b"></path><path d="M-243 0C-244.1 -27.8 -245.2 -55.6 -231.1 -75.1C-217 -94.6 -187.7 -105.8 -168.7 -122.6C-149.7 -139.3 -141 -161.6 -124.3 -171.1C-107.6 -180.7 -82.9 -177.5 -60.9 -187.4C-38.8 -197.2 -19.4 -220.1 0 -243L0 0Z" fill="#4548bc"></path><path d="M-182.2 0C-183.1 -20.8 -183.9 -41.7 -173.3 -56.3C-162.7 -70.9 -140.8 -79.4 -126.5 -91.9C-112.3 -104.5 -105.8 -121.2 -93.2 -128.3C-80.7 -135.5 -62.2 -133.1 -45.7 -140.5C-29.1 -147.9 -14.6 -165.1 0 -182.2L0 0Z" fill="#784ad9"></path><path d="M-121.5 0C-122.1 -13.9 -122.6 -27.8 -115.6 -37.5C-108.5 -47.3 -93.8 -52.9 -84.3 -61.3C-74.8 -69.6 -70.5 -80.8 -62.2 -85.6C-53.8 -90.3 -41.5 -88.7 -30.4 -93.7C-19.4 -98.6 -9.7 -110.1 0 -121.5L0 0Z" fill="#ae44f1"></path><path d="M-60.7 0C-61 -6.9 -61.3 -13.9 -57.8 -18.8C-54.2 -23.6 -46.9 -26.5 -42.2 -30.6C-37.4 -34.8 -35.3 -40.4 -31.1 -42.8C-26.9 -45.2 -20.7 -44.4 -15.2 -46.8C-9.7 -49.3 -4.9 -55 0 -60.7L0 0Z" fill="#ca3cfa"></path></g><g transform="translate(0, 0)"><path d="M486 0C488.9 55.9 491.7 111.8 462.2 150.2C432.7 188.6 370.8 209.5 333.3 242.2C295.8 274.8 282.8 319.2 253.9 349.5C225 379.8 180.3 396.1 135.3 416.6C90.4 437 45.2 461.5 0 486L0 0Z" fill="#001a30"></path><path d="M425.3 0C427.8 48.9 430.3 97.8 404.4 131.4C378.6 165 324.4 183.3 291.7 211.9C258.9 240.5 247.5 279.3 222.2 305.8C196.9 332.4 157.8 346.6 118.4 364.5C79.1 382.4 39.5 403.8 0 425.3L0 0Z" fill="#002853"></path><path d="M364.5 0C366.7 41.9 368.8 83.8 346.7 112.6C324.5 141.4 278.1 157.1 250 181.6C221.9 206.1 212.1 239.4 190.4 262.1C168.8 284.9 135.2 297.1 101.5 312.4C67.8 327.7 33.9 346.1 0 364.5L0 0Z" fill="#003578"></path><path d="M303.8 0C305.5 34.9 307.3 69.9 288.9 93.9C270.4 117.9 231.7 131 208.3 151.4C184.9 171.8 176.8 199.5 158.7 218.4C140.7 237.4 112.7 247.6 84.6 260.4C56.5 273.1 28.2 288.4 0 303.8L0 0Z" fill="#0c409b"></path><path d="M243 0C244.4 27.9 245.9 55.9 231.1 75.1C216.3 94.3 185.4 104.8 166.7 121.1C147.9 137.4 141.4 159.6 127 174.7C112.5 189.9 90.2 198.1 67.7 208.3C45.2 218.5 22.6 230.7 0 243L0 0Z" fill="#4548bc"></path><path d="M182.3 0C183.3 21 184.4 41.9 173.3 56.3C162.3 70.7 139 78.6 125 90.8C110.9 103.1 106.1 119.7 95.2 131.1C84.4 142.4 67.6 148.6 50.8 156.2C33.9 163.9 16.9 173.1 0 182.3L0 0Z" fill="#784ad9"></path><path d="M121.5 0C122.2 14 122.9 27.9 115.6 37.5C108.2 47.1 92.7 52.4 83.3 60.5C74 68.7 70.7 79.8 63.5 87.4C56.3 95 45.1 99 33.8 104.1C22.6 109.2 11.3 115.4 0 121.5L0 0Z" fill="#ae44f1"></path><path d="M60.8 0C61.1 7 61.5 14 57.8 18.8C54.1 23.6 46.3 26.2 41.7 30.3C37 34.4 35.4 39.9 31.7 43.7C28.1 47.5 22.5 49.5 16.9 52.1C11.3 54.6 5.6 57.7 0 60.8L0 0Z" fill="#ca3cfa"></path></g></svg>